<svg xmlns="http://www.w3.org/2000/svg" viewBox="0 0 180 180" fill="none" role="img" aria-label="Arkitect logo">
  <!-- Same mark as favicon.svg, sized for iOS home-screen icon -->
  <rect width="180" height="180" rx="40" fill="#111521"/>
  <rect width="180" height="180" rx="40" fill="url(#heroGlow)" fill-opacity="0.35"/>

  <defs>
    <linearGradient id="heroGlow" x1="0" y1="0" x2="1" y2="1">
      <stop offset="0%" stop-color="#6d8cff" stop-opacity="0.12"/>
      <stop offset="100%" stop-color="#111521" stop-opacity="0"/>
    </linearGradient>
  </defs>

  <g transform="translate(18 12) scale(2.25)">
    <path
      d="M10 46 L32 56 L54 46 L32 36 Z"
      fill="#1a2238"
      stroke="#a9c0ff"
      stroke-width="1.25"
      stroke-linejoin="round"
    />
    <path
      d="M18 14 L24 17 L24 43 L18 40 Z"
      fill="#6d8cff"
      fill-opacity="0.18"
      stroke="#a9c0ff"
      stroke-width="1.25"
      stroke-linejoin="round"
    />
    <path d="M18 14 L18 40 M24 17 L24 43" stroke="#6d8cff" stroke-width="1" stroke-linecap="round"/>
    <path
      d="M40 14 L46 17 L46 43 L40 40 Z"
      fill="#6d8cff"
      fill-opacity="0.18"
      stroke="#a9c0ff"
      stroke-width="1.25"
      stroke-linejoin="round"
    />
    <path d="M40 14 L40 40 M46 17 L46 43" stroke="#6d8cff" stroke-width="1" stroke-linecap="round"/>
    <path d="M20 22 L44 34" stroke="#a9c0ff" stroke-width="2.75" stroke-linecap="round"/>
    <path d="M20 22 L44 34" stroke="#6d8cff" stroke-width="1.1" stroke-linecap="round"/>
    <path d="M20 36 L44 24" stroke="#a9c0ff" stroke-width="2.75" stroke-linecap="round"/>
    <path d="M20 36 L44 24" stroke="#6d8cff" stroke-width="1.1" stroke-linecap="round"/>
    <path
      d="M12 18 L16 20 L16 24 L12 22 Z M12 18 L12 22 M16 20 L16 24 M12 22 L16 24 M12 18 L16 20"
      stroke="#6d8cff"
      stroke-width="0.9"
      stroke-linejoin="round"
      fill="none"
    />
  </g>
</svg>
